<svg width="48" height="46" viewBox="0 0 48 46" fill="none" xmlns="http://www.w3.org/2000/svg">
<path d="M0 15.528V15.5308C0.000442932 15.9907 0.221619 16.4504 0.663525 16.7266L7.37844 20.9234L21.7553 11.9379C23.1287 11.0795 24.8713 11.0795 26.2447 11.9379L40.6215 20.9234L47.3365 16.7266C47.7779 16.4507 47.9991 15.9916 48 15.5322V15.5267C47.9991 15.0672 47.7779 14.6082 47.3365 14.3322L24.7482 0.21459C24.2905 -0.0715299 23.7095 -0.0715299 23.2518 0.21459L0.663525 14.3322C0.221615 14.6084 0.000442932 15.0681 0 15.528ZM48 29.6443C47.9991 29.1848 47.7779 28.7258 47.3365 28.4499L40.6216 24.2531L26.2447 33.2386C24.8713 34.0969 23.1287 34.0969 21.7553 33.2386L7.37845 24.2531L0.663531 28.4499C0.221621 28.7261 0.000442932 29.1858 0 29.6456V29.6485C0.000442932 30.1083 0.221625 30.568 0.663531 30.8442L23.2518 44.9619C23.4807 45.105 23.7403 45.1765 24 45.1765C24.2597 45.1765 24.5193 45.105 24.7482 44.9619L47.3365 30.8442C47.7779 30.5683 47.9991 30.1093 48 29.6498L48 29.6443ZM24.7482 30.8442L37.9578 22.5882L24.7482 14.3322C24.2905 14.0461 23.7095 14.0461 23.2518 14.3322L10.0422 22.5882L23.2518 30.8442C23.7095 31.1303 24.2905 31.1303 24.7482 30.8442Z" fill="#5D69D9"/>
</svg>
