<svg width="64" height="64" viewBox="0 0 64 64" fill="none" xmlns="http://www.w3.org/2000/svg">
<path d="M0 21.998V22.002C0.000590575 22.6535 0.295492 23.3047 0.884701 23.696L9.83793 29.6415L29.0071 16.912C30.8382 15.696 33.1618 15.696 34.9929 16.912L54.1621 29.6415L63.1153 23.696C63.7039 23.3051 63.9988 22.6548 64 22.0039V21.9961C63.9988 21.3452 63.7039 20.6949 63.1153 20.304L32.9976 0.304002C32.3873 -0.101334 31.6127 -0.101334 31.0023 0.304002L0.884701 20.304C0.295487 20.6953 0.000590575 21.3465 0 21.998ZM64 41.9961C63.9988 41.3452 63.7039 40.6949 63.1153 40.304L54.1621 34.3585L34.9929 47.088C33.1618 48.304 30.8382 48.304 29.0071 47.088L9.83793 34.3585L0.884708 40.304C0.295495 40.6953 0.000590575 41.3465 0 41.998V42.002C0.000590575 42.6535 0.295499 43.3047 0.884708 43.696L31.0024 63.696C31.3076 63.8987 31.6537 64 32 64C32.3463 64 32.6924 63.8987 32.9976 63.696L63.1153 43.696C63.7039 43.3051 63.9988 42.6548 64 42.0039L64 41.9961ZM32.9976 43.696L50.6104 32L32.9976 20.304C32.3873 19.8987 31.6127 19.8987 31.0024 20.304L13.3896 32L31.0024 43.696C31.6127 44.1013 32.3873 44.1013 32.9976 43.696Z" fill="#5D69D9"/>
</svg>
